<svg xmlns="http://www.w3.org/2000/svg" id="Layer_1" data-name="Layer 1" viewBox="0 0 1986.97 1248.06"><defs><style>.cls-1,.cls-2,.cls-3{fill:#97aade}.cls-1{opacity:.4}.cls-2{opacity:.6}.cls-4{font-size:96px}.cls-4,.cls-6,.cls-8{fill:#374d9c;font-family:-apple-system,BlinkMacSystemFont,&apos;Segoe UI&apos;,Helvetica,Arial,sans-serif,&apos;Apple Color Emoji&apos;,&apos;Segoe UI Emoji&apos;,&apos;Segoe UI Symbol&apos;;font-weight:600}.cls-5{letter-spacing:-.03em}.cls-6{font-size:84px}.cls-8{font-size:72px}.cls-10{letter-spacing:-.09em}</style></defs><title>Diagram of React Native Components</title><path d="M1974.91,688.5c77.54,502.27-364.35,630.37-855.44,630.37S23.9,1103.45,23.9,571.91c0-344.64,450.64-501.1,941.74-501.1S1902.71,220.83,1974.91,688.5Z" class="cls-1" transform="translate(3.17 -70.81)"/><path d="M1906.15,886.45c-39.68,266.34-326.53,331.73-651.63,331.73S665.88,1059,665.88,732.31c0-406.27,263.54-485.88,588.64-485.88S1970.82,452.49,1906.15,886.45Z" class="cls-2" transform="translate(3.17 -70.81)"/><path d="M1889.35,803.72c0,122.94-77.07,147.52-240,147.52S1305.83,891,1299.27,803.72c-9.72-129.38,52.69-158.51,295-158.51C1757.25,645.21,1889.35,716.18,1889.35,803.72Z" class="cls-3" transform="translate(3.17 -70.81)"/><path d="M1312.15,645.21c0,86.32-149.63,130.42-306.33,130.42S722.08,803.72,722.08,674.34c0-86.32,41.52-149.06,198.23-149.06S1312.15,558.9,1312.15,645.21Z" class="cls-3" transform="translate(3.17 -70.81)"/><path d="M1401.54,964.49c0,119.42-128.62,184.17-272,190.47-213.08,9.37-283.33-75.66-283.33-154.54S986,869.29,1129.51,869.29,1401.54,885.61,1401.54,964.49Z" class="cls-3" transform="translate(3.17 -70.81)"/><text class="cls-4" transform="translate(414.46 432.29) rotate(3)"><tspan class="cls-5">R</tspan><tspan x="57.23" y="0">eact </tspan><tspan x="-330.14" y="96">Components</tspan></text><text class="cls-6" transform="matrix(1, 0.09, -0.09, 1, 1177.05, 346.63)"><tspan class="cls-5">R</tspan><tspan x="50.08" y="0">eact Native </tspan><tspan x="0" y="84">Components</tspan></text><text class="cls-8" transform="matrix(1, 0.09, -0.09, 1, 1506.32, 700.27)">Core <tspan x="-132.61" y="72">Components</tspan></text><text class="cls-8" transform="matrix(1, 0.09, -0.09, 1, 810.5, 549.77)">Community <tspan x="-18.25" y="72">Components</tspan></text><text class="cls-8" transform="translate(927.81 935.88) rotate(-8)"><tspan class="cls-10">Y</tspan><tspan x="35.16" y="0">our Native</tspan><tspan x="-19.37" y="72">Components</tspan></text></svg>